<svg xmlns="http://www.w3.org/2000/svg" data-name="finaler Aufbau POS" viewBox="0 0 48 48"><path fill="#303c49" d="M3.99 33.17c-.3-.65-.57-1.32-.8-1.99l1.89-.65c.21.61.46 1.22.73 1.81l-1.82.84zM2.6 29.11c-.16-.69-.3-1.4-.39-2.11l1.98-.27c.09.64.21 1.29.36 1.92l-1.95.46zm-.58-4.25C2.01 24.57 2 24.28 2 24c0-.43.01-.86.04-1.28l2 .11c-.02.39-.03.78-.03 1.17 0 .26 0 .53.02.79l-2 .08zm2.22-3.97l-1.98-.31c.11-.7.26-1.41.43-2.1l1.94.5c-.16.63-.29 1.27-.39 1.91zm.97-3.77l-1.88-.69c.25-.67.53-1.34.84-1.98l1.8.87c-.28.58-.54 1.19-.76 1.8zm1.7-3.51L5.2 12.57c.37-.61.77-1.21 1.2-1.78l1.6 1.2c-.39.52-.76 1.06-1.09 1.61zm2.34-3.11L7.78 9.15c.48-.52.99-1.03 1.52-1.51l1.34 1.49c-.48.43-.95.9-1.39 1.38zm2.9-2.61l-1.19-1.61c.58-.42 1.18-.82 1.79-1.19l1.03 1.72c-.55.33-1.1.69-1.62 1.08zm3.34-2l-.85-1.81c.65-.3 1.31-.58 1.98-.82l.67 1.88c-.61.22-1.22.47-1.8.74zm3.67-1.3l-.48-1.94c.7-.17 1.4-.31 2.1-.41l.29 1.98c-.64.09-1.28.22-1.91.38z"/><g fill="#e40045"><path d="M25.74 4.09c.24.02.47.05.7.08.3.04.6.09.9.14.72.13 1.44.28 2.13.48.37-.61.8-1.17 1.29-1.68a21.6 21.6 0 0 0-4.92-1.01c-.07 0-.15-.01-.22-.02-.54-.04-1.08-.07-1.63-.07h-1v2h1c.59 0 1.17.04 1.74.09zM44.92 17.21c-.52.5-1.09.93-1.7 1.31.2.7.35 1.41.48 2.13.05.3.1.6.14.9a20.274 20.274 0 0 1 .17 2.44c0 11.03-8.97 20-20 20-7.09 0-13.72-3.81-17.3-9.95l-1.73 1.01C8.74 41.51 15.58 45.62 23 45.96v.03h1c11.8 0 21.45-9.33 21.97-21H46v-2h-.03c-.09-2.01-.46-3.95-1.06-5.79z"/></g><path fill="#e40045" d="M38 2c-4.42 0-8 3.58-8 8s3.58 8 8 8 8-3.58 8-8-3.58-8-8-8zm0 14c-3.31 0-6-2.69-6-6s2.69-6 6-6 6 2.69 6 6-2.69 6-6 6z"/><path fill="#e40045" d="M40.29 8.86h-1.14V6.57a1.14 1.14 0 1 0-2.28 0V10c0 .63.51 1.14 1.14 1.14h2.29a1.14 1.14 0 1 0 0-2.28z"/><path fill="#303c49" d="M40.9 22.24c-.02-.22-.05-.45-.09-.67-.05-.35-.11-.7-.18-1.05-.02-.11-.03-.21-.06-.32-.02-.11-.06-.2-.09-.31l-.06-.21c-.78.2-1.59.31-2.43.31-.15 0-.3-.02-.45-.02.19.63.34 1.27.44 1.94l-4.54-.75-4.73-1.89h-9.47l-4.73 1.89-4.54.75a14.17 14.17 0 0 1 14-12.09c1.4 0 2.75.22 4.03.6 0-.14-.02-.28-.02-.42 0-.84.12-1.66.31-2.44l-.23-.06c-.1-.03-.2-.06-.31-.09-.11-.02-.21-.03-.32-.06-.35-.07-.69-.13-1.05-.18l-.67-.09c-.32-.03-.63-.05-.95-.07-.27-.01-.54-.02-.8-.02-.27 0-.53 0-.8.02-.32.01-.64.04-.95.07-.22.02-.45.05-.67.09-.35.05-.7.11-1.05.18-.11.02-.21.03-.32.06-.11.02-.2.06-.31.09-.33.08-.66.18-.99.28-.23.07-.47.15-.7.23-.27.1-.54.21-.8.32-.27.11-.53.23-.79.35-.22.1-.43.22-.64.33-.29.15-.57.31-.84.47-.19.11-.37.23-.55.35-.27.18-.55.37-.81.56-.18.14-.36.28-.54.43-.24.19-.47.39-.7.6-.2.18-.38.37-.57.56-.19.19-.38.38-.56.57-.21.23-.4.46-.6.7-.15.18-.29.35-.43.54-.2.26-.38.53-.56.81-.12.18-.24.36-.35.55-.17.27-.32.56-.47.84-.11.21-.22.42-.33.64-.12.26-.24.53-.35.79-.11.27-.22.53-.32.8-.08.23-.16.46-.23.7-.1.33-.2.65-.28.99-.03.1-.06.2-.09.31-.02.11-.03.21-.06.32-.07.35-.13.69-.18 1.05l-.09.67c-.03.32-.05.63-.07.95-.01.27-.02.54-.02.8 0 .27 0 .53.02.8.01.32.04.63.07.95.02.22.05.45.09.67.05.35.11.7.18 1.04.02.11.03.21.06.32h.02c1.41 6.16 6.2 11.29 12.78 12.8 2.49.57 5.08.57 7.58 0 6.58-1.5 11.37-6.63 12.78-12.8h.02c.02-.11.03-.21.06-.32.07-.35.13-.69.18-1.05l.09-.67c.03-.32.05-.63.07-.95.01-.27.02-.54.02-.8 0-.27 0-.53-.02-.8-.01-.32-.04-.64-.07-.95zm-20.68.81h7.54l.95.95-.95 1.89h-7.54L19.27 24l.95-.95zm-5.07 12.02a14.213 14.213 0 0 1-5.05-8.23h4.07l.6.95h.01l2.24 3.57-1.87 3.71zm12.63 2.57c-.51.14-1.04.25-1.56.34-.17.03-.33.05-.5.08l-.55.06c-.39.03-.78.06-1.18.06-.39 0-.79-.03-1.18-.06l-.55-.06c-.17-.02-.33-.05-.5-.08-.53-.09-1.05-.2-1.56-.34-.59-.16-1.18-.34-1.75-.59l2.4-3.6h6.28l2.4 3.6c-.57.24-1.16.43-1.75.59zm5.05-2.57l-1.87-3.71 2.24-3.57h.01l.6-.95h4.07c-.67 3.25-2.45 6.16-5.05 8.23z"/><path fill="none" d="M0 0h48v48H0z"/></svg>